<mxfile host="Electron" modified="2024-03-02T09:02:36.557Z" agent="Mozilla/5.0 (Windows NT 10.0; Win64; x64) AppleWebKit/537.36 (KHTML, like Gecko) draw.io/23.1.5 Chrome/120.0.6099.109 Electron/28.1.0 Safari/537.36" etag="7KwIfy4mLhHzKDD-1fvN" version="23.1.5" type="device">
  <diagram name="Page-1" id="w2spiss-9R0eat1zwMmG">
    <mxGraphModel dx="1098" dy="820" grid="1" gridSize="10" guides="1" tooltips="1" connect="1" arrows="1" fold="1" page="1" pageScale="1" pageWidth="850" pageHeight="1100" math="0" shadow="0">
      <root>
        <mxCell id="0" />
        <mxCell id="1" parent="0" />
        <mxCell id="a9O6dwVZhctFwtf7mcp--1" value="&lt;font style=&quot;font-size: 14px;&quot;&gt;&lt;b&gt;User&lt;/b&gt;&lt;/font&gt;" style="shape=umlActor;verticalLabelPosition=bottom;verticalAlign=top;html=1;outlineConnect=0;" parent="1" vertex="1">
          <mxGeometry x="50" y="230" width="50" height="90" as="geometry" />
        </mxCell>
        <mxCell id="lbwXi1pSMVNwbhtN_x_Q-2" value="Flask application" style="swimlane;whiteSpace=wrap;html=1;fillColor=#fff2cc;strokeColor=#d6b656;" vertex="1" parent="1">
          <mxGeometry x="280" y="80" width="270" height="390" as="geometry">
            <mxRectangle x="160" y="80" width="110" height="30" as="alternateBounds" />
          </mxGeometry>
        </mxCell>
        <mxCell id="lbwXi1pSMVNwbhtN_x_Q-4" value="&lt;b&gt;Register&lt;/b&gt;&lt;br style=&quot;border-color: var(--border-color);&quot;&gt;Unauthorized" style="ellipse;whiteSpace=wrap;html=1;align=center;" vertex="1" parent="lbwXi1pSMVNwbhtN_x_Q-2">
          <mxGeometry x="85" y="30" width="105" height="50" as="geometry" />
        </mxCell>
        <mxCell id="lbwXi1pSMVNwbhtN_x_Q-5" value="&lt;b&gt;Login&lt;/b&gt;&lt;br&gt;Unauthorized" style="ellipse;whiteSpace=wrap;html=1;align=center;" vertex="1" parent="lbwXi1pSMVNwbhtN_x_Q-2">
          <mxGeometry x="85" y="90" width="105" height="50" as="geometry" />
        </mxCell>
        <mxCell id="lbwXi1pSMVNwbhtN_x_Q-6" value="&lt;b&gt;Add to-do&lt;/b&gt;&lt;br style=&quot;border-color: var(--border-color);&quot;&gt;Authorized" style="ellipse;whiteSpace=wrap;html=1;align=center;" vertex="1" parent="lbwXi1pSMVNwbhtN_x_Q-2">
          <mxGeometry x="82.5" y="210" width="105" height="50" as="geometry" />
        </mxCell>
        <mxCell id="lbwXi1pSMVNwbhtN_x_Q-7" value="&lt;b&gt;Set done&lt;/b&gt;&lt;br&gt;Authorized" style="ellipse;whiteSpace=wrap;html=1;align=center;" vertex="1" parent="lbwXi1pSMVNwbhtN_x_Q-2">
          <mxGeometry x="82.5" y="270" width="105" height="50" as="geometry" />
        </mxCell>
        <mxCell id="lbwXi1pSMVNwbhtN_x_Q-8" value="&lt;b&gt;Remove&lt;/b&gt;&lt;br&gt;Authorized" style="ellipse;whiteSpace=wrap;html=1;align=center;" vertex="1" parent="lbwXi1pSMVNwbhtN_x_Q-2">
          <mxGeometry x="82.5" y="330" width="105" height="50" as="geometry" />
        </mxCell>
        <mxCell id="lbwXi1pSMVNwbhtN_x_Q-9" value="&lt;b&gt;Check list&lt;br&gt;&lt;/b&gt;Authorized" style="ellipse;whiteSpace=wrap;html=1;align=center;" vertex="1" parent="lbwXi1pSMVNwbhtN_x_Q-2">
          <mxGeometry x="82.5" y="150" width="105" height="50" as="geometry" />
        </mxCell>
        <mxCell id="lbwXi1pSMVNwbhtN_x_Q-10" value="" style="endArrow=none;html=1;rounded=0;exitX=0.5;exitY=0.5;exitDx=0;exitDy=0;exitPerimeter=0;entryX=0;entryY=0.5;entryDx=0;entryDy=0;" edge="1" parent="1" source="a9O6dwVZhctFwtf7mcp--1" target="lbwXi1pSMVNwbhtN_x_Q-4">
          <mxGeometry width="50" height="50" relative="1" as="geometry">
            <mxPoint x="140" y="270" as="sourcePoint" />
            <mxPoint x="190" y="220" as="targetPoint" />
          </mxGeometry>
        </mxCell>
        <mxCell id="lbwXi1pSMVNwbhtN_x_Q-11" value="" style="endArrow=none;html=1;rounded=0;exitX=0.5;exitY=0.5;exitDx=0;exitDy=0;exitPerimeter=0;entryX=0;entryY=0.5;entryDx=0;entryDy=0;" edge="1" parent="1" source="a9O6dwVZhctFwtf7mcp--1" target="lbwXi1pSMVNwbhtN_x_Q-5">
          <mxGeometry width="50" height="50" relative="1" as="geometry">
            <mxPoint x="85" y="285" as="sourcePoint" />
            <mxPoint x="355" y="145" as="targetPoint" />
          </mxGeometry>
        </mxCell>
        <mxCell id="lbwXi1pSMVNwbhtN_x_Q-12" value="" style="endArrow=none;html=1;rounded=0;exitX=0.5;exitY=0.5;exitDx=0;exitDy=0;exitPerimeter=0;entryX=0;entryY=0.5;entryDx=0;entryDy=0;" edge="1" parent="1" source="a9O6dwVZhctFwtf7mcp--1" target="lbwXi1pSMVNwbhtN_x_Q-9">
          <mxGeometry width="50" height="50" relative="1" as="geometry">
            <mxPoint x="30" y="550" as="sourcePoint" />
            <mxPoint x="300" y="410" as="targetPoint" />
          </mxGeometry>
        </mxCell>
        <mxCell id="lbwXi1pSMVNwbhtN_x_Q-13" value="" style="endArrow=none;html=1;rounded=0;exitX=0.5;exitY=0.5;exitDx=0;exitDy=0;exitPerimeter=0;entryX=0;entryY=0.5;entryDx=0;entryDy=0;" edge="1" parent="1" source="a9O6dwVZhctFwtf7mcp--1" target="lbwXi1pSMVNwbhtN_x_Q-6">
          <mxGeometry width="50" height="50" relative="1" as="geometry">
            <mxPoint x="30" y="570" as="sourcePoint" />
            <mxPoint x="300" y="430" as="targetPoint" />
          </mxGeometry>
        </mxCell>
        <mxCell id="lbwXi1pSMVNwbhtN_x_Q-14" value="" style="endArrow=none;html=1;rounded=0;exitX=0.5;exitY=0.5;exitDx=0;exitDy=0;exitPerimeter=0;entryX=0;entryY=0.5;entryDx=0;entryDy=0;" edge="1" parent="1" source="a9O6dwVZhctFwtf7mcp--1" target="lbwXi1pSMVNwbhtN_x_Q-7">
          <mxGeometry width="50" height="50" relative="1" as="geometry">
            <mxPoint x="70" y="570" as="sourcePoint" />
            <mxPoint x="150" y="430" as="targetPoint" />
          </mxGeometry>
        </mxCell>
        <mxCell id="lbwXi1pSMVNwbhtN_x_Q-15" value="" style="endArrow=none;html=1;rounded=0;exitX=0.5;exitY=0.5;exitDx=0;exitDy=0;exitPerimeter=0;entryX=0;entryY=0.5;entryDx=0;entryDy=0;" edge="1" parent="1" source="a9O6dwVZhctFwtf7mcp--1" target="lbwXi1pSMVNwbhtN_x_Q-8">
          <mxGeometry width="50" height="50" relative="1" as="geometry">
            <mxPoint x="100" y="580" as="sourcePoint" />
            <mxPoint x="370" y="440" as="targetPoint" />
          </mxGeometry>
        </mxCell>
      </root>
    </mxGraphModel>
  </diagram>
</mxfile>
